<?xml version="1.0" standalone="no"?>
<!DOCTYPE svg PUBLIC "-//W3C//DTD SVG 20010904//EN"
 "http://www.w3.org/TR/2001/REC-SVG-20010904/DTD/svg10.dtd">
<svg version="1.0" xmlns="http://www.w3.org/2000/svg"
 width="626.000000pt" height="626.000000pt" viewBox="0 0 626.000000 626.000000"
 preserveAspectRatio="xMidYMid meet">

<g transform="translate(0.000000,626.000000) scale(0.100000,-0.100000)"
fill="#000000" stroke="none">
<path d="M2335 5301 c-105 -26 -154 -94 -155 -212 0 -23 -6 -39 -15 -43 -9 -3
-15 -19 -15 -41 0 -40 12 -68 43 -102 12 -14 23 -45 28 -80 6 -48 13 -63 39
-85 73 -61 183 -55 251 13 13 13 19 33 19 63 0 35 7 52 34 84 41 50 57 129 29
150 -12 9 -19 33 -24 83 -4 46 -13 80 -26 97 -40 55 -140 90 -208 73z m140
-34 c59 -34 85 -78 85 -148 0 -38 5 -63 15 -73 32 -31 13 -117 -34 -153 -10
-7 -18 -34 -21 -69 -5 -55 -8 -60 -46 -87 -55 -38 -121 -41 -181 -8 -46 26
-63 55 -63 107 0 24 -10 47 -31 74 -36 44 -51 116 -26 125 10 5 17 28 22 79 4
42 14 86 25 103 42 69 175 95 255 50z"/>
<path d="M985 5291 c-51 -13 -114 -50 -155 -91 -30 -30 -41 -51 -50 -96 -19
-90 -9 -170 27 -229 17 -27 36 -73 42 -102 l11 -52 -71 -144 -70 -143 -10
-155 c-17 -235 -16 -240 72 -406 73 -135 76 -145 82 -225 4 -47 12 -98 18
-115 13 -38 0 -67 -76 -168 -62 -83 -73 -112 -81 -214 -8 -93 6 -149 51 -212
l33 -46 6 -296 c4 -231 3 -314 -8 -374 -8 -43 -17 -103 -21 -133 -3 -30 -21
-89 -40 -130 -35 -78 -55 -184 -55 -288 0 -65 31 -198 89 -389 23 -73 41 -144
41 -159 0 -15 -9 -52 -21 -83 -24 -67 -15 -105 26 -121 15 -6 149 -10 311 -10
235 0 284 2 284 14 0 22 -21 33 -85 45 -79 16 -279 115 -306 152 -34 48 -59
171 -59 287 0 90 29 432 45 528 3 17 24 59 48 95 41 62 42 67 42 144 0 76 3
86 62 220 34 77 74 180 88 229 14 50 28 92 30 95 3 2 18 -8 33 -22 16 -15 38
-27 49 -27 31 0 81 55 89 96 16 83 10 109 -34 173 -24 34 -61 99 -83 145 l-39
84 26 133 c20 105 27 174 30 319 3 114 11 219 21 273 14 74 15 102 6 180 -7
51 -9 104 -7 118 11 51 -14 103 -96 199 -44 52 -97 108 -118 123 -20 15 -40
33 -44 40 -7 14 5 84 24 130 10 27 14 28 52 23 23 -3 47 -2 54 3 16 10 31 71
32 123 0 20 8 50 17 66 16 28 16 30 -4 58 -23 32 -43 95 -43 134 0 43 -20 98
-47 130 -48 58 -146 90 -218 71z m111 -16 c49 -14 99 -56 123 -102 6 -12 15
-54 21 -94 7 -45 20 -90 36 -117 25 -42 25 -44 8 -63 -16 -18 -22 -50 -23
-125 -1 -16 -7 -38 -14 -48 -12 -16 -19 -16 -77 -6 -93 17 -124 34 -145 81
-23 51 -30 45 -9 -9 16 -40 23 -45 96 -71 27 -10 27 -11 14 -48 -7 -21 -16
-57 -19 -80 -7 -40 -6 -42 43 -83 70 -58 195 -211 210 -255 6 -20 9 -47 6 -61
-4 -14 -1 -69 5 -123 10 -78 10 -106 0 -142 -8 -25 -17 -138 -21 -264 -5 -162
-13 -250 -30 -335 -12 -63 -26 -119 -30 -124 -8 -8 -70 170 -85 244 -9 41 -49
123 -81 165 -44 58 -46 77 -28 224 11 92 14 164 9 223 -5 70 -3 92 10 118 9
18 14 34 11 37 -3 4 -13 -11 -22 -32 -12 -31 -14 -57 -9 -124 4 -58 1 -130
-10 -220 -9 -73 -14 -145 -10 -160 4 -14 27 -56 52 -92 35 -53 53 -94 84 -203
46 -161 129 -350 195 -444 43 -60 47 -72 46 -116 -3 -61 -28 -116 -64 -136
-25 -13 -29 -13 -54 6 -66 49 -85 86 -99 193 l-13 100 -88 123 c-90 126 -226
366 -244 428 -5 19 -13 85 -16 145 -5 88 -13 128 -39 200 -18 50 -35 117 -39
150 -4 33 -14 93 -23 134 -21 99 -14 230 16 288 23 46 68 84 120 102 54 18 68
14 116 -30 25 -23 45 -37 45 -31 0 5 -18 26 -40 46 -29 26 -49 36 -73 36 -84
-1 -177 -81 -196 -169 -14 -64 -14 -182 -1 -236 6 -22 15 -76 21 -120 5 -44
26 -125 45 -179 18 -55 32 -101 30 -103 -5 -6 -65 101 -112 201 l-37 78 11
188 11 187 71 142 71 142 -10 55 c-6 29 -26 84 -46 120 -40 77 -46 143 -20
231 21 72 95 135 183 159 61 16 60 16 118 -1z m-130 -1917 c37 -68 105 -177
151 -242 47 -65 88 -128 92 -140 5 -12 11 -55 15 -95 4 -42 16 -92 27 -114
l20 -39 -31 -104 c-16 -58 -56 -162 -87 -232 -54 -119 -58 -132 -58 -207 -1
-76 -3 -84 -43 -149 -47 -78 -46 -76 -68 -276 -25 -224 -29 -440 -10 -529 23
-110 37 -127 151 -189 96 -51 146 -70 229 -88 22 -5 41 -15 44 -21 3 -10 -57
-13 -278 -13 l-281 0 -24 25 c-30 29 -30 37 -4 95 29 62 27 99 -11 215 -52
164 -100 362 -100 418 0 91 27 225 59 294 21 44 34 92 40 147 5 44 14 102 20
128 7 30 9 154 5 349 l-5 304 -33 50 c-48 71 -60 115 -53 199 9 99 30 154 87
221 27 31 54 70 61 86 6 16 13 29 14 29 2 0 34 -55 71 -122z"/>
<path d="M909 4996 c-15 -32 -4 -87 22 -114 19 -21 69 -31 69 -13 0 4 -11 6
-24 4 -29 -6 -54 26 -62 79 -8 49 17 69 57 46 16 -10 29 -14 29 -9 0 10 -45
31 -66 31 -8 0 -19 -11 -25 -24z"/>
<path d="M915 4805 c-10 -25 -15 -48 -13 -51 3 -3 14 15 23 41 10 25 15 48 13
51 -3 3 -14 -15 -23 -41z"/>
<path d="M1267 4128 c17 -4 41 -4 55 1 18 7 11 8 -32 8 -49 0 -51 -1 -23 -9z"/>
<path d="M1301 3879 c-30 -61 -25 -74 5 -16 14 27 23 51 20 54 -2 3 -14 -14
-25 -38z"/>
<path d="M1234 3625 c17 -64 26 -115 26 -152 0 -23 4 -45 10 -48 17 -10 -11
176 -31 205 -8 12 -9 11 -5 -5z"/>
<path d="M861 1095 c0 -11 6 -33 14 -50 17 -39 18 -11 0 35 -9 23 -14 28 -14
15z"/>
<path d="M3609 5287 c-93 -35 -131 -88 -147 -205 -7 -46 -20 -89 -37 -117
l-26 -45 20 -29 c16 -21 21 -45 21 -88 0 -37 6 -67 16 -81 14 -20 21 -22 60
-16 41 6 44 5 55 -22 6 -16 15 -49 21 -74 l10 -45 -101 -102 c-137 -138 -161
-178 -161 -262 0 -36 -5 -101 -12 -146 -9 -64 -9 -90 1 -126 8 -24 16 -136 21
-254 5 -165 13 -242 35 -358 l28 -147 -33 -73 c-17 -39 -54 -105 -81 -145 -40
-59 -49 -81 -49 -115 0 -65 18 -113 51 -141 38 -33 52 -32 95 0 25 19 35 23
38 13 2 -8 16 -54 31 -104 15 -49 53 -149 85 -222 55 -124 59 -135 58 -207 -1
-70 2 -80 34 -133 20 -32 40 -67 46 -78 5 -11 20 -116 32 -233 38 -363 19
-572 -56 -631 -51 -40 -205 -112 -274 -127 -70 -16 -106 -37 -95 -55 10 -15
565 -11 594 4 39 20 47 41 33 87 -7 22 -17 58 -24 79 -11 35 -8 52 35 192 26
85 56 192 67 239 36 152 20 336 -39 460 -17 36 -31 76 -31 89 0 13 -9 78 -21
145 -19 113 -20 135 -10 331 6 116 8 238 5 272 -7 60 -6 63 34 123 49 73 56
105 50 215 -6 91 -28 152 -75 206 -17 18 -45 57 -62 85 -27 45 -30 55 -21 80
6 16 14 67 17 114 6 81 9 90 85 236 l78 151 0 109 c0 60 -5 153 -10 206 -9 91
-13 105 -76 230 -63 125 -66 135 -61 185 4 36 18 76 43 121 34 59 38 75 37
132 -1 131 -36 192 -140 248 -70 37 -143 48 -194 29z m167 -27 c24 -10 63 -37
88 -60 52 -48 68 -90 69 -185 1 -51 -4 -71 -36 -130 -20 -38 -41 -92 -46 -119
-9 -48 -7 -52 61 -191 68 -138 70 -144 79 -246 4 -57 8 -148 9 -202 l0 -97
-67 -130 c-37 -72 -71 -130 -75 -130 -4 0 9 46 28 102 20 56 39 136 44 178 5
41 14 91 20 110 12 40 15 177 5 241 -20 133 -190 224 -272 147 -14 -13 -30
-32 -35 -43 -6 -11 10 0 36 24 45 40 51 43 89 37 77 -12 150 -78 167 -152 13
-53 12 -201 0 -244 -6 -19 -15 -71 -20 -115 -6 -44 -26 -125 -45 -180 -27 -77
-35 -116 -35 -170 0 -130 -14 -178 -92 -322 -40 -73 -109 -184 -152 -246 -104
-146 -116 -171 -116 -232 0 -27 -5 -67 -11 -89 -12 -44 -93 -136 -120 -136
-29 0 -76 55 -82 97 -13 75 -8 98 32 154 73 102 163 302 202 449 27 104 55
168 104 240 36 53 37 57 31 120 -3 36 -9 146 -12 245 -5 128 -11 188 -21 208
-8 16 -16 27 -19 24 -2 -2 2 -17 11 -33 11 -22 15 -61 14 -154 0 -69 5 -165
11 -214 15 -112 10 -145 -34 -205 -44 -60 -62 -101 -91 -211 -27 -100 -65
-203 -72 -197 -2 3 -16 61 -30 129 -21 101 -26 157 -29 316 -2 139 -8 215 -20
267 -15 62 -16 84 -6 144 7 38 12 101 12 138 0 48 5 76 17 93 42 61 167 200
203 225 45 31 47 41 24 133 -9 35 -14 65 -13 66 2 2 24 10 49 18 45 14 60 32
74 88 4 14 -4 5 -16 -20 -20 -39 -30 -47 -73 -61 -137 -45 -165 -34 -165 64 0
44 -6 70 -19 91 -19 29 -19 29 6 67 18 27 28 62 35 119 15 112 51 161 144 196
45 16 100 11 160 -16z m89 -1855 c17 -24 42 -58 57 -77 50 -62 74 -226 47
-309 -7 -19 -28 -56 -47 -82 -33 -47 -34 -51 -29 -115 3 -37 1 -164 -5 -282
-9 -185 -8 -228 6 -300 8 -47 20 -118 26 -158 5 -40 22 -96 36 -123 32 -64 54
-177 54 -278 0 -82 -22 -179 -87 -390 -48 -153 -50 -179 -23 -246 26 -64 21
-97 -15 -113 -38 -17 -578 -17 -573 0 3 7 36 20 74 28 87 20 270 111 306 152
42 48 60 145 59 321 0 81 -3 158 -6 170 -2 12 -12 94 -20 182 -17 163 -24 189
-80 280 -20 33 -25 53 -25 116 0 70 -4 85 -56 200 -30 68 -71 174 -89 236
l-35 113 20 33 c13 21 23 65 29 121 9 95 10 96 126 259 33 46 92 141 130 211
57 104 72 124 80 110 6 -9 24 -36 40 -59z"/>
<path d="M3734 5005 c-10 -8 -14 -15 -7 -15 6 0 15 5 18 10 11 18 43 11 50
-11 16 -50 -14 -111 -60 -122 -15 -3 -13 -5 8 -6 34 -1 67 47 67 100 0 55 -34
76 -76 44z"/>
<path d="M3773 4840 c14 -48 32 -90 39 -90 5 0 2 16 -6 35 -17 40 -40 78 -33
55z"/>
<path d="M3397 4127 c14 -6 31 -6 50 1 25 9 23 9 -22 9 -40 0 -45 -2 -28 -10z"/>
<path d="M3390 3907 c0 -15 30 -80 36 -74 3 3 -4 22 -15 44 -11 21 -20 34 -21
30z"/>
<path d="M3461 3603 c-6 -21 -13 -72 -16 -113 l-4 -75 9 65 c5 36 14 84 21
108 6 23 9 45 6 48 -3 3 -10 -11 -16 -33z"/>
<path d="M3839 1085 c-4 -16 -9 -39 -13 -50 -4 -11 0 -7 9 8 9 16 15 38 13 50
-3 18 -5 17 -9 -8z"/>
<path d="M4858 5278 c-48 -13 -124 -79 -137 -121 -9 -27 -14 -128 -12 -270 1
-26 9 -48 26 -69 20 -24 25 -40 25 -87 0 -67 -5 -73 -120 -147 -62 -40 -86
-50 -137 -55 -34 -3 -73 -13 -86 -22 -13 -8 -41 -51 -63 -94 l-39 -78 -6 -160
c-4 -88 -12 -176 -18 -195 -6 -19 -19 -87 -27 -150 -41 -305 -41 -377 1 -610
42 -232 48 -310 29 -385 -20 -78 -15 -98 31 -152 45 -53 64 -59 118 -35 l43
19 -1 110 c0 108 -1 112 -31 154 -55 77 -58 100 -35 259 15 103 21 192 21 328
0 181 1 189 26 242 15 30 32 77 38 104 l12 49 33 -74 c27 -59 35 -93 41 -169
7 -99 3 -130 -32 -208 -14 -33 -24 -84 -30 -167 -32 -407 -19 -565 67 -866 33
-116 34 -117 30 -300 -2 -128 -8 -205 -20 -254 -23 -92 -15 -274 14 -361 23
-66 85 -289 100 -355 11 -49 -4 -94 -58 -173 -52 -75 -50 -77 97 -74 l127 3
-3 55 c-1 30 -10 84 -18 120 -13 53 -15 95 -10 221 4 86 13 194 21 240 19 107
19 157 -1 260 -14 74 -15 99 -3 209 8 78 13 259 14 480 0 333 7 428 26 360 4
-14 7 -171 8 -350 0 -179 6 -387 13 -462 10 -116 10 -154 -4 -250 -15 -113
-14 -138 11 -318 16 -114 14 -357 -4 -415 -8 -27 -12 -52 -9 -56 2 -4 -1 -20
-6 -34 -6 -15 -8 -36 -5 -46 6 -17 18 -19 136 -19 144 0 147 2 103 61 -14 19
-37 56 -51 83 -31 61 -30 69 42 322 79 272 88 372 50 524 -9 36 -15 121 -16
240 l-1 185 41 145 c51 178 69 288 77 489 5 127 3 167 -10 217 -9 34 -16 98
-16 142 0 66 -6 95 -31 162 -29 76 -31 89 -27 170 4 68 13 107 39 174 19 47
37 86 42 86 4 0 7 -16 7 -35 0 -20 14 -62 32 -98 l32 -62 2 -205 c1 -134 7
-246 19 -325 21 -147 17 -181 -29 -245 l-36 -50 0 -114 0 -114 40 -16 c22 -9
46 -16 54 -16 7 0 35 23 61 51 l47 51 -8 56 c-15 109 -7 261 21 402 48 244 45
451 -12 740 -9 47 -20 155 -23 240 -6 153 -6 156 -43 231 -50 101 -70 119
-143 126 -69 7 -93 18 -191 86 l-73 51 0 69 c0 61 3 72 25 93 21 19 25 32 25
76 0 29 -4 59 -9 66 -4 7 -3 36 2 64 18 93 -18 177 -96 222 -53 30 -92 37
-139 24z m123 -29 c80 -40 120 -124 101 -214 -6 -30 -6 -57 -1 -67 5 -9 9 -37
9 -63 0 -36 -6 -51 -25 -71 -22 -22 -25 -34 -26 -94 -1 -37 2 -73 6 -79 10
-18 110 -89 161 -116 27 -14 64 -25 86 -25 77 0 102 -20 149 -116 l42 -87 7
-166 c4 -91 12 -178 18 -192 5 -14 13 -52 17 -85 3 -32 13 -106 22 -164 20
-132 13 -344 -15 -480 -43 -204 -48 -286 -26 -442 6 -46 5 -49 -43 -99 l-49
-51 -43 18 -43 17 4 111 c3 109 4 112 41 165 44 63 46 89 21 257 -11 69 -17
182 -18 309 l-2 200 -32 65 c-47 94 -45 156 9 291 23 57 46 110 52 117 5 7 7
15 4 18 -8 8 -21 -19 -74 -149 -130 -321 -126 -306 -131 -407 -4 -88 -2 -101
23 -160 20 -50 29 -91 35 -175 4 -60 14 -141 20 -180 10 -54 10 -110 1 -245
-12 -180 -35 -305 -86 -470 -26 -81 -27 -95 -26 -280 1 -148 6 -210 18 -255
12 -41 17 -94 16 -165 -2 -96 -7 -123 -63 -320 -34 -118 -64 -237 -66 -265 -6
-51 2 -70 80 -187 l18 -28 -120 0 c-130 0 -134 2 -121 55 34 136 40 382 13
549 -16 101 -15 213 4 347 5 34 3 98 -4 160 -7 61 -13 254 -14 464 -1 268 -4
368 -14 390 l-13 30 -14 -25 c-11 -20 -14 -93 -15 -380 0 -214 -6 -403 -14
-476 -11 -109 -11 -134 5 -237 18 -113 18 -119 -1 -244 -22 -149 -26 -436 -7
-493 6 -19 15 -59 18 -88 l7 -52 -121 0 c-67 0 -121 2 -121 5 0 3 12 24 27 48
15 23 37 64 50 90 l23 48 -21 92 c-12 51 -41 157 -66 237 -54 178 -66 310 -38
425 12 49 18 126 20 262 l4 192 -40 138 c-60 208 -72 290 -73 508 -1 249 15
423 44 495 38 92 40 111 31 211 -9 84 -19 115 -94 299 -46 114 -89 215 -95
225 -23 40 -11 0 27 -89 21 -50 44 -108 51 -130 16 -48 7 -124 -19 -180 -40
-83 -43 -99 -42 -276 1 -128 -4 -213 -20 -319 -11 -80 -18 -159 -14 -177 3
-18 22 -57 42 -86 36 -53 36 -54 36 -156 0 -56 -2 -105 -5 -107 -2 -2 -21 -11
-41 -20 -37 -15 -37 -15 -76 20 -59 53 -67 82 -46 157 15 53 15 74 5 162 -6
55 -20 146 -30 202 -31 165 -42 307 -31 419 15 150 39 316 51 355 7 19 15 109
19 200 l7 165 39 73 c21 41 49 81 62 89 12 8 49 18 81 22 62 7 121 36 210 104
l52 39 0 69 c0 59 -3 72 -25 95 -21 22 -25 37 -25 85 0 32 4 60 10 64 6 4 6
15 0 31 -6 14 -10 49 -10 77 0 83 51 151 137 181 42 16 70 12 124 -15z"/>
<path d="M4797 4850 c4 -14 7 -54 6 -90 0 -45 2 -57 7 -40 13 40 10 93 -6 125
-11 24 -13 25 -7 5z"/>
<path d="M5001 4852 c-12 -23 -15 -152 -3 -152 4 0 5 27 4 59 -2 33 2 69 8 81
6 12 9 24 7 27 -3 2 -10 -4 -16 -15z"/>
<path d="M4847 4377 c-4 -10 -7 -35 -6 -55 l1 -37 9 40 c11 45 8 82 -4 52z"/>
<path d="M4953 4345 c0 -27 2 -38 4 -22 2 15 2 37 0 50 -2 12 -4 0 -4 -28z"/>
<path d="M4716 3518 c21 -37 68 -97 72 -93 5 4 -66 105 -74 105 -3 0 -2 -6 2
-12z"/>
<path d="M5054 3488 c-41 -60 -46 -68 -40 -68 8 0 79 101 74 106 -3 2 -18 -15
-34 -38z"/>
<path d="M4570 3033 c0 -19 64 -96 99 -120 19 -13 43 -23 55 -23 15 0 9 6 -19
19 -39 18 -86 62 -118 111 -10 13 -17 19 -17 13z"/>
<path d="M5194 2987 c-25 -32 -58 -62 -85 -75 -24 -11 -38 -21 -31 -22 35 -1
124 74 151 128 18 34 10 27 -35 -31z"/>
<path d="M4690 2094 c-6 -16 -16 -42 -22 -57 -6 -15 -8 -30 -6 -33 3 -2 15 21
27 52 12 31 19 59 16 62 -2 3 -9 -8 -15 -24z"/>
<path d="M5101 2105 c0 -11 11 -42 25 -70 26 -55 22 -27 -7 45 -10 25 -18 36
-18 25z"/>
<path d="M4804 2054 c5 -10 11 -27 13 -36 3 -10 9 -18 14 -18 11 0 -10 58 -24
67 -7 4 -8 0 -3 -13z"/>
<path d="M4980 2040 c-7 -17 -10 -33 -8 -36 3 -2 11 9 18 26 7 17 10 33 8 36
-3 2 -11 -9 -18 -26z"/>
<path d="M4822 1528 c-13 -22 -21 -42 -18 -45 2 -3 14 14 26 37 28 54 22 61
-8 8z"/>
<path d="M4950 1566 c0 -11 43 -76 47 -72 3 3 -5 21 -17 40 -20 33 -30 43 -30
32z"/>
<path d="M4821 1119 c1 -19 5 -45 9 -59 6 -16 7 -6 3 30 -7 63 -13 80 -12 29z"/>
<path d="M4975 1141 c3 -6 1 -28 -4 -50 -5 -24 -5 -41 0 -41 5 0 9 8 9 19 0
10 3 33 6 50 4 21 3 31 -5 31 -7 0 -10 -4 -6 -9z"/>
<path d="M4772 1093 c-1 -23 -6 -53 -12 -67 -6 -16 -6 -26 0 -26 12 0 23 58
17 101 -4 32 -4 32 -5 -8z"/>
<path d="M5024 1104 c-4 -14 -1 -44 5 -66 16 -51 24 -45 10 6 -6 21 -8 49 -5
62 4 13 4 24 1 24 -2 0 -8 -12 -11 -26z"/>
<path d="M2231 4717 c-1 -32 -29 -62 -112 -119 -44 -30 -74 -41 -154 -57 -112
-21 -127 -32 -181 -139 -27 -52 -29 -66 -30 -167 0 -77 -6 -125 -18 -160 -13
-36 -20 -104 -26 -242 -5 -105 -12 -202 -15 -215 -11 -44 13 -530 31 -623 15
-78 15 -99 4 -168 l-13 -79 39 -56 c46 -68 79 -77 134 -40 l34 23 4 97 3 96
-45 69 c-56 82 -56 92 -15 266 28 118 33 156 40 362 9 237 30 412 44 367 4
-13 25 -59 45 -101 l38 -77 -5 -120 c-4 -91 -11 -136 -30 -193 -19 -57 -24
-91 -22 -150 1 -42 -2 -125 -6 -186 -8 -120 6 -361 31 -505 8 -47 33 -157 54
-244 45 -180 49 -253 25 -421 -30 -208 -18 -314 71 -608 30 -99 54 -191 54
-203 0 -15 -26 -52 -70 -101 -99 -110 -97 -113 48 -113 137 0 160 5 167 34 13
50 8 150 -13 269 -26 149 -27 216 -7 312 19 89 19 146 0 234 -13 61 -13 75 0
119 24 79 33 210 23 318 -13 135 -12 441 1 544 6 46 11 108 11 137 0 29 4 53
8 53 21 0 31 -386 21 -795 -3 -134 -1 -173 15 -237 17 -66 18 -85 8 -129 -17
-71 -15 -169 5 -268 14 -72 15 -98 4 -185 -6 -55 -18 -132 -27 -171 -10 -48
-13 -93 -8 -143 6 -66 9 -74 32 -83 36 -14 254 -7 259 8 2 6 -28 46 -66 89
-90 98 -89 89 -31 274 57 183 77 267 91 377 10 88 9 117 -11 273 -25 199 -23
233 21 398 47 176 68 301 86 516 14 163 14 213 5 280 -7 45 -12 123 -12 174 0
65 -5 105 -19 139 -26 67 -37 310 -16 340 8 12 28 54 44 94 16 41 32 67 34 59
17 -53 37 -295 35 -420 -2 -135 1 -155 35 -304 20 -88 37 -169 37 -181 0 -12
-20 -53 -45 -92 l-45 -71 1 -101 2 -102 38 -20 c54 -27 72 -24 109 18 55 62
63 92 45 168 -13 58 -13 73 0 136 27 129 37 306 31 544 -8 330 -21 535 -37
570 -8 18 -13 72 -14 140 0 97 -3 117 -26 166 -15 31 -43 74 -63 96 -33 37
-42 41 -112 52 -96 14 -143 35 -216 95 -42 34 -58 54 -58 72 0 13 -4 24 -8 24
-5 0 -6 -14 -4 -31 4 -24 20 -42 78 -85 87 -64 96 -68 199 -85 93 -14 116 -33
168 -133 31 -59 32 -65 30 -167 -2 -82 1 -116 14 -145 18 -42 28 -181 39 -554
7 -219 -5 -426 -31 -550 -14 -67 -14 -84 -1 -144 8 -38 12 -76 9 -85 -12 -32
-75 -111 -89 -111 -8 0 -33 9 -55 21 -45 23 -46 28 -9 137 19 60 7 56 -16 -4
l-15 -39 4 65 c3 58 8 72 45 124 27 38 42 70 42 89 0 17 -17 103 -37 191 -35
151 -37 170 -35 311 1 107 -4 193 -19 300 -20 143 -21 266 -3 345 4 21 4 22
-6 8 -6 -10 -13 -55 -16 -100 -6 -92 -32 -183 -75 -270 -29 -57 -29 -59 -23
-190 4 -93 12 -149 25 -186 13 -37 19 -80 19 -143 0 -50 5 -123 11 -162 9 -54
8 -115 -1 -242 -14 -201 -37 -347 -85 -531 -49 -189 -51 -230 -25 -424 31
-233 23 -302 -75 -629 -30 -102 -53 -193 -49 -203 3 -11 37 -54 75 -96 38 -42
69 -80 69 -84 0 -12 -228 -10 -249 2 -27 14 -35 119 -17 206 8 38 20 113 27
167 11 87 11 111 -6 208 -13 82 -16 127 -10 181 12 109 10 173 -10 277 -16 87
-17 110 -5 265 12 162 10 323 -6 588 -6 88 -4 99 14 123 12 14 28 50 38 78 9
29 26 67 37 86 12 19 15 31 9 27 -16 -10 -47 -70 -62 -123 -17 -54 -41 -77
-74 -69 -20 5 -30 21 -52 81 -16 40 -36 84 -47 97 -17 22 -17 20 1 -17 11 -22
25 -58 32 -80 7 -22 24 -57 37 -77 28 -42 28 -12 2 -320 -9 -114 -9 -181 0
-292 17 -217 14 -340 -9 -431 -19 -76 -19 -81 -3 -166 15 -82 15 -94 0 -191
-10 -56 -17 -127 -17 -156 0 -52 22 -217 40 -295 11 -51 -2 -156 -21 -168 -19
-12 -249 -12 -249 1 0 5 32 45 71 87 70 77 71 79 66 123 -3 25 -22 97 -42 160
-95 300 -109 420 -76 659 25 179 23 200 -29 406 -51 203 -67 304 -82 516 -9
140 -9 201 0 277 7 53 9 120 6 147 -4 38 0 68 19 125 20 62 25 100 28 205 l2
130 -42 95 c-24 52 -45 113 -48 135 -12 111 -26 206 -30 202 -2 -3 1 -45 8
-94 10 -77 9 -108 -6 -209 -10 -65 -21 -216 -25 -334 -7 -191 -11 -230 -39
-348 -42 -181 -41 -197 14 -280 41 -61 45 -72 44 -127 0 -54 -2 -57 -10 -30
-18 54 -30 78 -35 72 -3 -3 -1 -14 5 -25 6 -11 17 -48 25 -82 l14 -61 -44 -22
c-54 -26 -65 -21 -112 49 -26 38 -32 55 -28 79 17 88 17 145 1 225 -17 87 -41
580 -29 610 3 8 9 101 14 205 6 133 14 207 27 245 12 38 17 88 18 160 0 98 2
110 32 170 47 96 65 109 180 132 89 18 105 24 176 76 76 54 94 80 84 119 -3
12 -5 8 -6 -10z"/>
<path d="M2265 4676 c3 -16 12 -43 20 -60 l14 -31 -6 30 c-3 17 -12 44 -20 60
l-14 30 6 -29z"/>
<path d="M2480 4674 c-7 -16 -13 -42 -16 -59 -3 -18 4 -8 16 24 11 30 18 57
15 59 -2 3 -9 -8 -15 -24z"/>
<path d="M2360 4435 c6 -8 18 -11 26 -8 22 8 17 18 -11 19 -20 2 -23 -1 -15
-11z"/>
<path d="M1975 4136 c22 -27 54 -55 72 -63 57 -23 145 -14 200 22 36 24 21 29
-18 6 -86 -50 -160 -40 -237 32 l-56 52 39 -49z"/>
<path d="M2767 4136 c-22 -26 -51 -49 -73 -56 -48 -16 -126 -7 -170 21 -19 12
-37 19 -39 17 -12 -12 83 -51 134 -55 72 -7 116 12 161 68 44 55 33 59 -13 5z"/>
<path d="M2072 3471 c13 -17 27 -30 31 -30 5 -1 -2 12 -15 28 -13 17 -27 30
-31 30 -5 1 2 -12 15 -28z"/>
<path d="M2669 3468 l-22 -33 31 29 c34 32 37 36 23 36 -5 0 -20 -15 -32 -32z"/>
<path d="M2129 3273 c5 -10 26 -34 47 -53 l38 -35 -37 44 c-20 25 -37 48 -37
53 0 4 -5 8 -10 8 -7 0 -7 -6 -1 -17z"/>
<path d="M2587 3245 c-20 -24 -37 -47 -37 -51 0 -10 39 27 62 59 33 46 15 40
-25 -8z"/>
<path d="M2492 1964 c8 -9 23 -14 33 -12 12 2 7 7 -16 15 -30 12 -32 11 -17
-3z"/>
<path d="M2235 1960 c-13 -6 -15 -9 -5 -9 8 0 22 4 30 9 18 12 2 12 -25 0z"/>
</g>
</svg>
